<svg width="164" height="165" viewBox="0 0 164 165" fill="none" xmlns="http://www.w3.org/2000/svg">
<path d="M46 125.003L35.5 123.503L29 121.503L21.5 117.503L21 137.003L21.5 137.503L26.5 142.003L46 155.503M46 125.003L47.5 128.003L52.5 135.003L63.5 148.503L46 155.503M46 125.003L63.5 99.0026M46 155.503V156.503M142.5 117.003L139.5 120.003L133 122.503L125.5 124.503H118L111.5 138.003L100 149.003L105 152.503L117 155.003L132.5 146.503L142.5 135.003V117.003ZM142.5 117.003L150 102.003L153 82.0026M63.5 99.0026H97.5M63.5 99.0026L58 84.5026L54.2 65.5026M97.5 99.0026L104.5 83.0026L107.5 66.0026M97.5 99.0026L102 106.003L107 112.503L112.5 118.503L117.304 125.503M107.5 66.0026L95.5 55.0026L81.5 45.5026L66.5 55.5027L54.5 65.0027L54.2 65.5026M107.5 66.0026L114 63.2169M9 81.5026L16.5 68.5026L25.5 58.5026M25.5 58.5026L54.2 65.5026M25.5 58.5026L24 53.0027L23.5 48.0026V36.5026C23.5 36.5026 25 32.0027 24.5 32.5027C24 33.0027 14 36.5026 14 36.5026M114.5 63.0026L114 63.2169M114 63.2169L120 61.5026L124.5 60.0026L132.5 58.5026L136.5 59.5027L137.5 54.5027L138 52.5026L139 35.0027L144.5 36.5027L152.5 40.0027" stroke="#242424" stroke-opacity="0.36"/>
<path d="M81.5 18.5029L74 15.0029L68.5 13.0029L64 11.5029L59.5 11.0029L56.5 10.0029M56.5 10.0029L47.5 13.5029L40.5 18.0029L34.5 23.0029L30 28.0029L24.5 32.5029M56.5 10.0029L60.5 6.50293L64 2.50293" stroke="#242424" stroke-opacity="0.36"/>
<path d="M162 66.5029L159.58 73.6662L153 82.0029L151 79.0029L148.5 74.5029L145.5 70.5029L142.5 65.5029L138.5 61.0029L136.5 59.5029" stroke="#242424" stroke-opacity="0.36"/>
<path d="M46.5 156.503L22.5 140.003L16.5 132.503L5.5 112.503C3.83333 104.503 0.5 92.7029 0.5 89.5029V72.0029L5.5 51.5029L18.5 29.0029L34 15.5029L58 3.00293L87 0.50293L105.5 3.00293L132.5 17.0029L152.5 40.0029L163.5 72.0029V94.0029L158 112.003L144 134.003L132.5 146.003L112.5 158.503L90 164.503H71.5L46.5 156.503Z" stroke="#242424" stroke-opacity="0.36"/>
<path d="M9 81.5029L0.5 73.0029" stroke="#242424" stroke-opacity="0.36"/>
<path d="M81.5 46.0029V18.5029L92.5 13.5029L107 10.5029L121 16.5029L126 20.5029L130.5 24.5029L139 34.5029L139.5 35.0029H138.5" stroke="#242424" stroke-opacity="0.36"/>
<path d="M106.5 10.0029L103 7.00293L101 5.00293L99 2.00293" stroke="#242424" stroke-opacity="0.36"/>
<path d="M17.5 109.003L21 116.503C21.4 117.303 21.5 117.17 21.5 117.003L17.5 109.003ZM17.5 109.003L14.5 103.503L11.5 96.0029L10 89.5029L9 81.5029" stroke="#242424" stroke-opacity="0.36"/>
<path d="M63.5 148.503L69.5 150.003L74.5 150.503H79.5H86L91 150.003L99.5 149.003H100.5" stroke="#242424" stroke-opacity="0.36"/>
</svg>
