<svg width="40" height="40" viewBox="0 0 40 40" fill="none" xmlns="http://www.w3.org/2000/svg">
<path d="M17.2744 22.082L17.5635 22.3838M17.2744 22.082L15.3818 21.8457C15.363 21.8584 15.3441 21.871 15.3252 21.8838C15.5755 22.4931 15.9451 23.0535 16.4199 23.5283C16.5967 23.7051 16.7858 23.8667 16.9844 24.0137C17.0612 23.7117 17.2986 23.4205 17.6035 23.1113L17.9443 22.7783C18.1032 22.6261 18.2592 22.4707 18.4131 22.3135M17.2744 22.082L17.5635 22.3838M17.2744 22.082L17.2783 22.083M17.5635 22.3838L17.7988 22.1484M17.5635 22.3838L17.5654 22.3818M17.7988 22.1484L18.3076 22.2119L18.4131 22.3135M17.7988 22.1484L17.5654 22.3818M17.7988 22.1484L17.2783 22.083M18.4131 22.3135C18.4281 22.2979 18.4573 22.2723 18.4961 22.2354L18.3096 22.2119L18.4062 22.3066L18.4131 22.3135ZM17.2783 22.083L17.5654 22.3818M17.2783 22.083L17.5654 22.3818M17.8135 22.1338L18.2881 22.1924L18.0166 21.9307M17.8135 22.1338L18.0166 21.9307M17.8135 22.1338L18.0166 21.9307M17.8135 22.1338L15.3965 21.8359C15.917 21.4847 16.4129 21.1521 16.8828 20.8359L18.0166 21.9307M18.9043 21.043L18.0195 21.9277M18.9043 21.043L18.0068 20.0801M18.9043 21.043L18.0195 21.9277M18.9043 21.043L18.0068 20.0801M18.0195 21.9277L16.8945 20.8281C17.2827 20.5669 17.6533 20.3174 18.0068 20.0801M18.0195 21.9277L18.29 22.1924L18.5117 22.2197L19.3076 21.4746C19.6924 21.1165 20.1656 20.6744 20.6621 20.209M18.0068 20.0801C19.67 18.9637 20.9492 18.1108 21.8457 17.5234L22.2197 18.4238M20.6621 20.209L22.2197 18.4238M20.6621 20.209C21.2154 19.6902 21.7961 19.141 22.3115 18.6426L22.2197 18.4238M20.6621 20.209L22.2197 18.4238M22.0166 17.9307L22.3125 18.6416C23.1915 17.7916 23.8806 17.09 23.916 16.9375C23.9194 16.9232 23.9221 16.8986 23.9229 16.8682C23.8272 16.7466 23.7264 16.6287 23.6191 16.5156C23.5459 16.5152 23.4712 16.531 23.4092 16.5459C23.4057 16.5467 23.4019 16.5496 23.3965 16.5518M22.0166 17.9307L23.3965 16.5518M22.0166 17.9307L23.1846 16.7627M22.0166 17.9307L21.8467 17.5234C22.4031 17.1589 22.8123 16.8971 23.0732 16.7363M23.3965 16.5518C23.3529 16.5693 23.2451 16.6305 23.0732 16.7363M23.3965 16.5518L23.1846 16.7627M23.1846 16.7627L23.0732 16.7363M23.1846 16.7627L23.0732 16.7363M18.5371 15.6562C17.8535 15.948 17.0729 16.283 16.1953 16.6611C16.2675 16.5788 16.342 16.4979 16.4199 16.4199C16.8113 16.0286 17.2611 15.7094 17.748 15.4688M18.5371 15.6562L17.748 15.4688M18.5371 15.6562C19.1752 15.3839 19.7293 15.1502 20.1982 14.9531L19.9736 14.9482C19.1942 14.9483 18.4339 15.1299 17.748 15.4688M18.5371 15.6562L17.748 15.4688" fill="#9F9F9F" stroke="#9F9F9F" stroke-width="50"/>
</svg>
