<svg width="41" height="41" viewBox="0 0 41 41" fill="none" xmlns="http://www.w3.org/2000/svg">
<path d="M40.5526 20.2763C40.5526 25.6539 38.4164 30.8112 34.6138 34.6138C30.8113 38.4163 25.6539 40.5525 20.2763 40.5525C14.8987 40.5525 9.74134 38.4163 5.93879 34.6138C2.13625 30.8112 0 25.6539 0 20.2763C0 14.8987 2.13625 9.74132 5.93879 5.93878C9.74134 2.13624 14.8987 0 20.2763 0C25.6539 0 30.8113 2.13624 34.6138 5.93878C38.4164 9.74132 40.5526 14.8987 40.5526 20.2763ZM21.0037 14.969C19.0318 15.7901 15.0881 17.4883 9.17756 20.0634C8.21951 20.4435 7.71513 20.8187 7.66951 21.1836C7.59348 21.7995 8.36651 22.0428 9.41834 22.3749L9.86189 22.5143C10.896 22.8514 12.29 23.2442 13.0123 23.2594C13.6713 23.2746 14.4038 23.006 15.2123 22.4484C20.7351 18.7201 23.5864 16.8369 23.7638 16.7964C23.8906 16.7659 24.068 16.7305 24.1846 16.8369C24.3037 16.9408 24.291 17.1411 24.2783 17.1943C24.2023 17.5212 21.1685 20.3396 19.5996 21.7995C19.1104 22.2557 18.7632 22.5776 18.6922 22.6511C18.5359 22.8108 18.3771 22.968 18.2157 23.1225C17.2526 24.0502 16.5328 24.7447 18.2537 25.8801C19.0825 26.4276 19.7466 26.8762 20.4081 27.3273C21.1279 27.819 21.8477 28.3082 22.7804 28.9216C23.0161 29.0736 23.2443 29.2384 23.4648 29.3955C24.3037 29.9937 25.0615 30.531 25.9917 30.4448C26.5341 30.3941 27.0942 29.8872 27.3781 28.3665C28.0497 24.7751 29.3702 16.9966 29.6744 13.7904C29.6929 13.5239 29.6819 13.2561 29.6414 12.992C29.6176 12.7789 29.5144 12.5826 29.3525 12.442C29.1219 12.2828 28.8469 12.2004 28.5668 12.2063C27.8064 12.219 26.6329 12.627 21.0037 14.969Z" fill="white"/>
</svg>
