<svg width="41" height="41" viewBox="0 0 41 41" fill="none" xmlns="http://www.w3.org/2000/svg">
<path d="M26.5071 0H14.0667C2.70346 0 0 2.69526 0 14.0029V26.4056C0 37.7342 2.68243 40.4296 14.0455 40.4296H26.4859C37.8492 40.4296 40.5526 37.7553 40.5526 26.4265V14.024C40.5526 2.69526 37.8702 0 26.5071 0ZM32.7377 28.8481H29.7808C28.6614 28.8481 28.3235 27.9427 26.317 25.9423C24.5639 24.2577 23.8247 24.0471 23.3811 24.0471C22.7686 24.0471 22.5996 24.2156 22.5996 25.0579V27.7111C22.5996 28.427 22.3673 28.8481 20.4876 28.8481C18.6635 28.7259 16.8946 28.1735 15.3266 27.2363C13.7586 26.2991 12.4364 25.0039 11.4688 23.4575C9.17169 20.607 7.57342 17.2615 6.80106 13.687C6.80106 13.2448 6.96998 12.8447 7.81487 12.8447H10.7718C11.5321 12.8447 11.8068 13.1817 12.1024 13.9608C13.5386 18.1722 15.9888 21.8361 16.9814 21.8361C17.3616 21.8361 17.5305 21.6677 17.5305 20.7202V16.3823C17.4038 14.403 16.3478 14.2345 16.3478 13.5186C16.3617 13.3298 16.4489 13.1537 16.5908 13.0279C16.7328 12.9021 16.9184 12.8364 17.1081 12.8447H21.7548C22.3885 12.8447 22.5996 13.1606 22.5996 13.9186V19.7726C22.5996 20.4043 22.8742 20.6148 23.0643 20.6148C23.4445 20.6148 23.7401 20.4043 24.4371 19.7094C25.9349 17.8884 27.1587 15.8597 28.07 13.687C28.163 13.4256 28.3393 13.2017 28.572 13.0496C28.8047 12.8975 29.0809 12.8256 29.3584 12.8447H32.3154C33.2024 12.8447 33.3925 13.2869 33.2024 13.9186C32.1265 16.3208 30.7953 18.601 29.2317 20.7202C28.9149 21.2044 28.7882 21.4571 29.2317 22.0256C29.5274 22.4678 30.5624 23.3312 31.2594 24.1524C32.2731 25.1606 33.115 26.3271 33.7516 27.6058C34.005 28.427 33.5826 28.8481 32.7377 28.8481Z" fill="white"/>
</svg>
