<svg width="40" height="40" viewBox="0 0 40 40" fill="none" xmlns="http://www.w3.org/2000/svg">
<path d="M36.5818 9.11537C30.6673 -0.000301332 18.5918 -2.71037 9.22718 2.95613C0.108958 8.62263 -2.8483 20.9411 3.06622 30.0568L3.5591 30.7959L1.58759 38.187L8.98074 36.216L9.72006 36.7088C12.9238 38.4334 16.3739 39.4188 19.824 39.4188C23.5206 39.4188 27.2172 38.4333 30.4209 36.4624C39.5391 30.5495 42.2499 18.4774 36.5818 9.11537ZM31.4066 28.0858C30.4209 29.564 29.1887 30.5495 27.4636 30.7959C26.4779 30.7959 25.2457 31.2886 20.3169 29.3177C16.1275 27.3467 12.6773 24.1439 10.2129 20.4484C8.7343 18.7238 7.99499 16.5065 7.74855 14.2891C7.74855 12.3182 8.48786 10.5936 9.72006 9.36174C10.2129 8.869 10.7058 8.62263 11.1987 8.62263H12.4309C12.9238 8.62263 13.4166 8.62263 13.6631 9.60811C14.1559 10.84 15.3881 13.7964 15.3881 14.0428C15.6346 14.2891 15.6346 14.7819 15.3881 15.0282C15.6346 15.521 15.3881 16.0137 15.1417 16.2601C14.8953 16.5065 14.6488 16.9992 14.4024 17.2456C13.9095 17.4919 13.6631 17.9847 13.9095 18.4774C14.8953 19.9556 16.1275 21.4339 17.3596 22.6657C18.8383 23.8975 20.3169 24.883 22.042 25.6221C22.5349 25.8685 23.0277 25.8685 23.2742 25.3758C23.5206 24.883 24.7528 23.6512 25.2457 23.1584C25.7386 22.6657 25.985 22.6657 26.4779 22.9121L30.4209 24.883C30.9138 25.1294 31.4066 25.3758 31.6531 25.6221C31.8995 26.3612 31.8995 27.3467 31.4066 28.0858Z" fill="white"/>
</svg>
