<svg width="40" height="39" viewBox="0 0 40 39" fill="none" xmlns="http://www.w3.org/2000/svg">
<mask id="path-1-inside-1_45_633" fill="white">
<path d="M37.0129 9.00681C31.0287 -0.000297743 18.8109 -2.67809 9.3359 2.92093C0.110242 8.51994 -2.88186 20.6917 3.10235 29.6988L3.60103 30.4291L1.6063 37.7322L9.08656 35.7847L9.83459 36.2716C13.076 37.9756 16.5668 38.9494 20.0576 38.9494C23.7977 38.9494 27.5379 37.9756 30.7793 36.0281C40.005 30.1857 42.7477 18.2574 37.0129 9.00681ZM31.7767 27.7513C30.7793 29.2119 29.5326 30.1857 27.7872 30.4291C26.7899 30.4291 25.5431 30.916 20.5563 28.9685C16.3175 27.021 12.8267 23.8564 10.3333 20.2048C8.83722 18.5008 8.08919 16.3099 7.83985 14.119C7.83985 12.1715 8.58788 10.4674 9.83459 9.25025C10.3333 8.76338 10.832 8.51994 11.3306 8.51994H12.5773C13.076 8.51994 13.5747 8.51994 13.8241 9.49368C14.3227 10.7109 15.5695 13.6321 15.5695 13.8755C15.8188 14.119 15.8188 14.6058 15.5695 14.8493C15.8188 15.3361 15.5695 15.823 15.3201 16.0664C15.0708 16.3099 14.8214 16.7967 14.5721 17.0402C14.0734 17.2836 13.8241 17.7705 14.0734 18.2574C15.0708 19.718 16.3175 21.1786 17.5642 22.3958C19.0602 23.6129 20.5563 24.5867 22.3017 25.317C22.8004 25.5604 23.2991 25.5604 23.5484 25.0735C23.7977 24.5867 25.0445 23.3695 25.5431 22.8826C26.0418 22.3958 26.2912 22.3958 26.7899 22.6392L30.7793 24.5867C31.278 24.8301 31.7767 25.0735 32.026 25.317C32.2754 26.0473 32.2754 27.021 31.7767 27.7513Z"/>
</mask>
<path d="M37.0129 9.00681C31.0287 -0.000297743 18.8109 -2.67809 9.3359 2.92093C0.110242 8.51994 -2.88186 20.6917 3.10235 29.6988L3.60103 30.4291L1.6063 37.7322L9.08656 35.7847L9.83459 36.2716C13.076 37.9756 16.5668 38.9494 20.0576 38.9494C23.7977 38.9494 27.5379 37.9756 30.7793 36.0281C40.005 30.1857 42.7477 18.2574 37.0129 9.00681ZM31.7767 27.7513C30.7793 29.2119 29.5326 30.1857 27.7872 30.4291C26.7899 30.4291 25.5431 30.916 20.5563 28.9685C16.3175 27.021 12.8267 23.8564 10.3333 20.2048C8.83722 18.5008 8.08919 16.3099 7.83985 14.119C7.83985 12.1715 8.58788 10.4674 9.83459 9.25025C10.3333 8.76338 10.832 8.51994 11.3306 8.51994H12.5773C13.076 8.51994 13.5747 8.51994 13.8241 9.49368C14.3227 10.7109 15.5695 13.6321 15.5695 13.8755C15.8188 14.119 15.8188 14.6058 15.5695 14.8493C15.8188 15.3361 15.5695 15.823 15.3201 16.0664C15.0708 16.3099 14.8214 16.7967 14.5721 17.0402C14.0734 17.2836 13.8241 17.7705 14.0734 18.2574C15.0708 19.718 16.3175 21.1786 17.5642 22.3958C19.0602 23.6129 20.5563 24.5867 22.3017 25.317C22.8004 25.5604 23.2991 25.5604 23.5484 25.0735C23.7977 24.5867 25.0445 23.3695 25.5431 22.8826C26.0418 22.3958 26.2912 22.3958 26.7899 22.6392L30.7793 24.5867C31.278 24.8301 31.7767 25.0735 32.026 25.317C32.2754 26.0473 32.2754 27.021 31.7767 27.7513Z" fill="#9F9F9F"/>
<path d="M37.0129 9.00681L79.509 -17.3386L79.0945 -18.0072L78.6591 -18.6625L37.0129 9.00681ZM9.3359 2.92093L-16.1011 -40.1251L-16.3541 -39.9756L-16.6053 -39.8231L9.3359 2.92093ZM3.10235 29.6988L-38.5439 57.3681L-38.3683 57.6324L-38.1893 57.8945L3.10235 29.6988ZM3.60103 30.4291L51.8342 43.6034L57.9221 21.3145L44.8927 2.23341L3.60103 30.4291ZM1.6063 37.7322L-46.6269 24.5579L-69.3857 107.882L14.2038 86.1192L1.6063 37.7322ZM9.08656 35.7847L36.3616 -6.12082L17.8564 -18.1653L-3.51096 -12.6023L9.08656 35.7847ZM9.83459 36.2716L-17.4404 78.1771L-15.4907 79.4461L-13.4316 80.5286L9.83459 36.2716ZM30.7793 36.0281L56.5295 78.8875L57.0336 78.5847L57.5304 78.2701L30.7793 36.0281ZM31.7767 27.7513L-9.51497 -0.444388L31.7767 27.7513ZM27.7872 30.4291V80.4291H31.2572L34.694 79.9498L27.7872 30.4291ZM20.5563 28.9685L-0.31799 74.4027L1.00828 75.012L2.36784 75.543L20.5563 28.9685ZM10.3333 20.2048L51.6249 -7.99088L49.9117 -10.4999L47.9073 -12.7829L10.3333 20.2048ZM7.83985 14.119H-42.1602V16.955L-41.8395 19.7728L7.83985 14.119ZM13.8241 9.49368L-34.6131 21.8968L-33.7549 25.2483L-32.4433 28.4497L13.8241 9.49368ZM15.5695 13.8755H-34.4305V34.9381L-19.3596 49.6521L15.5695 13.8755ZM15.5695 14.8493L-19.3596 -20.9273L-45.7388 4.82705L-28.9339 37.6408L15.5695 14.8493ZM14.5721 17.0402L36.506 61.9724L43.7406 58.4408L49.5011 52.8167L14.5721 17.0402ZM14.0734 18.2574L-30.4299 41.0489L-28.9943 43.8521L-27.2183 46.4531L14.0734 18.2574ZM17.5642 22.3958L-17.3648 58.1723L-15.746 59.7528L-13.9909 61.1807L17.5642 22.3958ZM22.3017 25.317L44.2356 -19.6152L42.9357 -20.2498L41.6013 -20.8081L22.3017 25.317ZM32.026 25.317L79.3441 9.16156L75.49 -2.1268L66.9551 -10.4596L32.026 25.317ZM37.0129 9.00681L78.6591 -18.6625C57.5 -50.5101 15.5437 -58.8248 -16.1011 -40.1251L9.3359 2.92093L34.7729 45.967C22.0781 53.4686 4.55737 50.5095 -4.63339 36.6761L37.0129 9.00681ZM9.3359 2.92093L-16.6053 -39.8231C-49.0373 -20.1403 -60.9487 23.6457 -38.5439 57.3681L3.10235 29.6988L44.7486 2.02955C55.1849 17.7377 49.2578 37.1802 35.2771 45.665L9.3359 2.92093ZM3.10235 29.6988L-38.1893 57.8945L-37.6906 58.6248L3.60103 30.4291L44.8927 2.23341L44.394 1.5031L3.10235 29.6988ZM3.60103 30.4291L-44.6321 17.2548L-46.6269 24.5579L1.6063 37.7322L49.8395 50.9065L51.8342 43.6034L3.60103 30.4291ZM1.6063 37.7322L14.2038 86.1192L21.6841 84.1717L9.08656 35.7847L-3.51096 -12.6023L-10.9912 -10.6548L1.6063 37.7322ZM9.08656 35.7847L-18.1885 77.6902L-17.4404 78.1771L9.83459 36.2716L37.1096 -5.63396L36.3616 -6.12082L9.08656 35.7847ZM9.83459 36.2716L-13.4316 80.5286C-4.16376 85.4007 7.25511 88.9494 20.0576 88.9494V38.9494V-11.0506C25.8785 -11.0506 30.3158 -9.44952 33.1008 -7.98547L9.83459 36.2716ZM20.0576 38.9494V88.9494C32.3497 88.9494 45.0772 85.7681 56.5295 78.8875L30.7793 36.0281L5.02913 -6.83126C9.99852 -9.81691 15.2458 -11.0506 20.0576 -11.0506V38.9494ZM30.7793 36.0281L57.5304 78.2701C89.8602 57.7961 99.7378 15.2911 79.509 -17.3386L37.0129 9.00681L-5.48322 35.3522C-14.2423 21.2236 -9.85026 2.57522 4.02825 -6.21379L30.7793 36.0281ZM31.7767 27.7513L-9.51497 -0.444388C-7.51107 -3.37904 -4.03358 -7.63326 1.46191 -11.4656C7.25132 -15.503 13.933 -18.1226 20.8804 -19.0915L27.7872 30.4291L34.694 79.9498C54.0418 77.2513 66.4721 65.607 73.0684 55.947L31.7767 27.7513ZM27.7872 30.4291V-19.5709C25.8111 -19.5709 24.2016 -19.4522 23.989 -19.4376C23.3994 -19.3974 24.0959 -19.4477 24.6698 -19.4738C26.4893 -19.5564 28.7969 -19.5402 31.3733 -19.2443C33.7519 -18.9711 35.6215 -18.544 36.8507 -18.2075C38.04 -17.882 38.7155 -17.6174 38.7448 -17.606L20.5563 28.9685L2.36784 75.543C7.2407 77.4459 13.1792 79.3234 19.9623 80.1025C23.5984 80.5202 26.7164 80.5363 29.206 80.4233C30.115 80.382 31.1114 80.3089 30.8004 80.3301C30.769 80.3323 30.4259 80.3561 29.9661 80.3779C29.4862 80.4007 28.7267 80.4291 27.7872 80.4291V30.4291ZM20.5563 28.9685L41.4306 -16.4657C46.3351 -14.2123 49.5912 -10.9692 51.6249 -7.99088L10.3333 20.2048L-30.9584 48.4006C-23.9378 58.6819 -13.7002 68.2544 -0.31799 74.4027L20.5563 28.9685ZM10.3333 20.2048L47.9073 -12.7829C55.01 -4.69277 56.9839 3.76228 57.5192 8.46509L7.83985 14.119L-41.8395 19.7728C-40.8056 28.8575 -37.3355 41.6943 -27.2408 53.1926L10.3333 20.2048ZM7.83985 14.119H57.8398C57.8398 25.3955 53.3277 36.6656 44.7636 45.0268L9.83459 9.25025L-25.0944 -26.5263C-36.152 -15.7307 -42.1602 -1.05258 -42.1602 14.119H7.83985ZM9.83459 9.25025L44.7636 45.0268C39.6796 49.9904 28.3331 58.5199 11.3306 58.5199V8.51994V-41.4801C-6.66917 -41.4801 -19.013 -32.4637 -25.0944 -26.5263L9.83459 9.25025ZM11.3306 8.51994V58.5199H12.5773V8.51994V-41.4801H11.3306V8.51994ZM12.5773 8.51994V58.5199C15.3743 58.5199 1.98339 59.5862 -11.0659 52.3061C-27.2482 43.2782 -32.8424 28.812 -34.6131 21.8968L13.8241 9.49368L62.2613 -2.90944C60.2412 -10.7984 54.2729 -25.7514 37.6543 -35.0228C30.3083 -39.1211 23.5096 -40.5295 19.1969 -41.0728C17.0727 -41.3403 15.3387 -41.4226 14.3006 -41.4545C13.7656 -41.471 13.3276 -41.4763 13.0529 -41.4784C12.9125 -41.4794 12.796 -41.4798 12.7195 -41.4799C12.6483 -41.4801 12.585 -41.4801 12.5773 -41.4801V8.51994ZM13.8241 9.49368L-32.4433 28.4497C-32.2468 28.9293 -31.9987 29.5234 -31.847 29.8877C-31.6578 30.3417 -31.5077 30.703 -31.3836 31.0058C-31.2295 31.3819 -31.2505 31.34 -31.3549 31.066C-31.3841 30.9894 -31.6318 30.344 -31.9355 29.43C-32.0726 29.0172 -32.4207 27.9555 -32.7898 26.5568C-32.974 25.859 -33.2876 24.6121 -33.5832 23.0301C-33.7351 22.2176 -33.9261 21.0843 -34.087 19.7214C-34.2392 18.4313 -34.4305 16.3899 -34.4305 13.8755H15.5695H65.5695C65.5695 9.33489 64.9332 5.8278 64.715 4.65984C64.4146 3.05247 64.0939 1.77523 63.9005 1.04233C63.5129 -0.426514 63.1375 -1.57709 62.9653 -2.09545C62.5915 -3.22059 62.2425 -4.14362 62.0886 -4.54735C61.7349 -5.47555 61.371 -6.36954 61.1511 -6.90625C60.9012 -7.51637 60.6461 -8.12886 60.4613 -8.5725C60.239 -9.1059 60.1443 -9.33334 60.0914 -9.46233L13.8241 9.49368ZM15.5695 13.8755L-19.3596 49.6521C-30.9442 38.3419 -34.2435 24.4476 -34.2435 14.3624C-34.2435 4.27718 -30.9442 -9.61717 -19.3596 -20.9273L15.5695 14.8493L50.4985 50.6258C62.3324 39.0723 65.7565 24.8127 65.7565 14.3624C65.7565 3.91203 62.3324 -10.3475 50.4985 -21.901L15.5695 13.8755ZM15.5695 14.8493L-28.9339 37.6408C-35.531 24.759 -35.2936 11.5456 -32.3556 1.50586C-29.6962 -7.58131 -24.7952 -14.6467 -19.6089 -19.7101L15.3201 16.0664L50.2491 51.843C58.3282 43.9554 74.5489 20.3242 60.0728 -7.94231L15.5695 14.8493ZM15.3201 16.0664L-19.6089 -19.7101C-20.3638 -18.9731 -21.0219 -18.2849 -21.5814 -17.6746C-22.142 -17.0631 -22.6327 -16.4982 -23.0507 -16.0009C-23.8711 -15.0246 -24.5197 -14.1795 -24.9644 -13.5824C-25.413 -12.9802 -25.7656 -12.4802 -25.9725 -12.1834C-26.1684 -11.9026 -26.339 -11.6521 -26.3455 -11.6425C-26.4013 -11.5608 -26.2931 -11.72 -26.1596 -11.9115C-26.015 -12.1188 -25.7247 -12.5314 -25.3385 -13.0499C-24.956 -13.5633 -24.3698 -14.3286 -23.6117 -15.2307C-23.2249 -15.6909 -22.7654 -16.2201 -22.236 -16.7976C-21.7076 -17.3739 -21.0807 -18.0298 -20.3569 -18.7364L14.5721 17.0402L49.5011 52.8167C50.256 52.0797 50.9141 51.3915 51.4736 50.7812C52.0342 50.1697 52.5249 49.6048 52.9429 49.1075C53.7633 48.1313 54.4119 47.2861 54.8566 46.6891C55.3052 46.0869 55.6578 45.5868 55.8647 45.2901C56.0606 45.0092 56.2312 44.7587 56.2377 44.7491C56.2935 44.6674 56.1853 44.8266 56.0518 45.0181C55.9072 45.2254 55.6169 45.638 55.2307 46.1565C54.8482 46.6699 54.262 47.4352 53.5039 48.3373C53.1171 48.7975 52.6576 49.3267 52.1282 49.9042C51.5998 50.4805 50.9729 51.1364 50.2491 51.843L15.3201 16.0664ZM14.5721 17.0402L-7.36181 -27.892C-16.1039 -23.6245 -26.0093 -15.5967 -31.7409 -2.53999C-37.9701 11.6505 -37.2976 27.6389 -30.4299 41.0489L14.0734 18.2574L58.5767 -4.53422C65.1951 8.38897 65.8675 23.8905 59.8253 37.6549C54.2808 50.2857 44.7494 57.9483 36.506 61.9724L14.5721 17.0402ZM14.0734 18.2574L-27.2183 46.4531C-24.2081 50.8613 -20.7827 54.8355 -17.3648 58.1723L17.5642 22.3958L52.4932 -13.3808C53.0344 -12.8524 53.49 -12.3575 53.895 -11.8788C54.2953 -11.4058 54.7964 -10.7711 55.3651 -9.93836L14.0734 18.2574ZM17.5642 22.3958L-13.9909 61.1807C-9.83153 64.5648 -4.25376 68.4061 3.00208 71.4421L22.3017 25.317L41.6013 -20.8081C45.3663 -19.2328 47.952 -17.3389 49.1193 -16.3892L17.5642 22.3958ZM22.3017 25.317L0.367794 70.2492C5.4934 72.7513 16.1619 76.9094 29.9253 74.9898C46.8039 72.6357 60.7424 62.1374 68.0517 47.8651L23.5484 25.0735L-20.9549 2.28197C-13.895 -11.5034 -0.33047 -21.7583 16.1118 -24.0516C29.4388 -25.9103 39.6087 -21.8739 44.2356 -19.6152L22.3017 25.317ZM23.5484 25.0735L68.0517 47.8651C66.39 51.1099 64.7432 53.4162 64.0882 54.3147C63.2673 55.4407 62.5731 56.2863 62.1823 56.7516C61.411 57.67 60.8256 58.2858 60.6823 58.4365C60.363 58.7723 60.1715 58.9527 60.4722 58.6592L25.5431 22.8826L-9.38589 -12.8939C-9.58392 -12.7006 -10.6481 -11.6681 -11.7778 -10.4804C-12.3263 -9.90366 -13.3012 -8.86178 -14.3921 -7.563C-14.7024 -7.19348 -18.0957 -3.30097 -20.9549 2.28197L23.5484 25.0735ZM25.5431 22.8826L60.4722 58.6592C59.2013 59.8999 49.9936 69.2676 34.1967 71.838C17.8845 74.4923 5.74831 68.007 4.85595 67.5714L26.7899 22.6392L48.7237 -22.293C47.3327 -22.9721 34.8225 -29.579 18.1363 -26.8639C1.96541 -24.2326 -7.61636 -14.6216 -9.38589 -12.8939L25.5431 22.8826ZM26.7899 22.6392L4.85595 67.5714L8.84543 69.5189L30.7793 24.5867L52.7132 -20.3455L48.7237 -22.293L26.7899 22.6392ZM30.7793 24.5867L8.84543 69.5189C9.3958 69.7876 8.34241 69.2893 7.1362 68.6164C6.43982 68.2279 5.20105 67.5133 3.70414 66.4967C2.30868 65.5489 -0.165439 63.7663 -2.903 61.0935L32.026 25.317L66.9551 -10.4596C61.8873 -15.4073 56.8775 -18.1429 55.8562 -18.7127C54.9084 -19.2415 54.1135 -19.6483 53.6494 -19.8822C53.1977 -20.1098 52.7851 -20.3104 52.7132 -20.3455L30.7793 24.5867ZM32.026 25.317L-15.2921 41.4724C-17.2507 35.7357 -18.164 29.4348 -17.6848 22.8858C-17.1996 16.2534 -15.1367 7.78845 -9.51497 -0.444388L31.7767 27.7513L73.0684 55.947C84.8944 38.6283 83.0977 20.1556 79.3441 9.16156L32.026 25.317Z" fill="#9F9F9F" mask="url(#path-1-inside-1_45_633)"/>
</svg>
